<?xml version="1.0" standalone="no"?>
<!DOCTYPE svg PUBLIC "-//W3C//DTD SVG 20010904//EN"
 "http://www.w3.org/TR/2001/REC-SVG-20010904/DTD/svg10.dtd">
<svg version="1.0" xmlns="http://www.w3.org/2000/svg"
 width="516.000000pt" height="516.000000pt" viewBox="0 0 516.000000 516.000000"
 preserveAspectRatio="xMidYMid meet">
<metadata>
Created by potrace 1.11, written by Peter Selinger 2001-2013
</metadata>
<g transform="translate(0.000000,516.000000) scale(0.100000,-0.100000)"
fill="#000000" stroke="none">
<path d="M4224 5126 c-38 -19 -93 -57 -122 -85 -203 -191 -201 -190 -256 -190
-28 0 -66 -5 -83 -10 -18 -5 -33 -8 -33 -6 0 7 -111 -34 -153 -57 -54 -30 -71
-45 -240 -212 -89 -88 -150 -140 -164 -142 -41 -4 -167 -17 -198 -19 -128 -11
-185 -16 -215 -20 -53 -6 -159 -17 -210 -20 -25 -2 -72 -7 -104 -10 -32 -3
-77 -7 -100 -8 -39 -1 -49 -10 -268 -228 -126 -124 -229 -232 -230 -240 -1
-16 -3 -48 -12 -234 -3 -71 -9 -184 -12 -250 -6 -113 -10 -189 -13 -261 -1
-27 -9 -36 -63 -70 -120 -73 -214 -186 -240 -286 -11 -43 -18 -53 -58 -76
-139 -80 -220 -173 -264 -303 -23 -69 -28 -76 -75 -102 -60 -34 -148 -117
-184 -174 -42 -66 -67 -155 -68 -236 -1 -69 9 -165 17 -179 3 -4 -13 -24 -33
-46 -102 -104 -276 -292 -289 -310 -53 -77 -62 -230 -20 -352 l26 -75 -90 -86
c-69 -67 -99 -88 -128 -94 -20 -3 -55 -15 -77 -25 -48 -21 -200 -161 -222
-204 -15 -28 -21 -127 -11 -181 7 -41 52 -117 99 -169 93 -102 206 -157 331
-162 98 -4 151 14 214 71 27 25 63 54 79 66 40 28 81 86 90 128 6 26 33 59
109 133 55 53 108 98 116 98 8 0 41 -6 73 -14 80 -19 228 -14 297 9 92 30 99
36 330 255 58 55 90 78 100 73 21 -9 226 -9 279 0 157 29 296 126 375 261 28
49 46 68 65 72 96 20 200 76 273 147 54 52 118 137 118 156 0 6 12 13 28 17
44 9 143 63 198 108 29 22 71 70 95 106 24 36 44 66 44 67 1 4 62 12 145 19
47 3 99 8 115 10 17 1 62 5 100 8 39 4 89 8 112 11 46 5 152 14 228 20 28 2
82 7 120 10 l70 6 74 72 c40 40 144 142 230 227 l156 156 1 49 c1 59 14 342
19 435 2 36 7 130 10 210 l6 145 167 165 c111 109 175 180 189 210 99 205 55
471 -121 734 -39 58 -44 71 -34 85 32 40 65 76 91 99 15 14 27 34 27 45 0 20
-47 192 -95 353 -46 150 -105 213 -243 258 -143 47 -225 64 -343 71 -72 5 -80
3 -145 -29z m168 -94 c47 -20 75 -73 137 -263 34 -102 61 -190 61 -196 0 -5
-8 -17 -18 -27 -18 -16 -21 -10 -72 146 -70 219 -103 268 -176 268 -44 0 -86
-30 -201 -143 -75 -74 -114 -106 -117 -96 -3 8 -10 26 -15 42 -12 31 -16 25
133 160 139 126 183 144 268 109z m356 -71 c59 -30 86 -77 128 -221 20 -69 40
-138 45 -154 5 -16 7 -32 4 -34 -4 -5 -131 20 -199 39 -33 9 -34 11 -96 202
-34 105 -66 196 -71 202 -5 5 -9 14 -9 21 0 14 136 -23 198 -55z m-400 -143
c11 -24 27 -68 36 -97 l16 -55 -32 -35 c-47 -51 -44 -50 -106 -25 -31 12 -68
25 -82 27 -89 17 -91 9 25 123 59 57 110 104 115 104 4 0 17 -19 28 -42z
m-443 -125 c10 -32 23 -64 28 -70 5 -7 8 -13 6 -14 -2 0 -13 -2 -24 -4 -11 -2
-36 -7 -55 -11 -19 -4 -37 -8 -40 -8 -32 -6 -108 -57 -142 -95 -207 -230 -3
-678 412 -904 211 -116 451 -136 596 -51 43 25 117 102 116 120 0 5 3 14 8 19
24 30 39 154 26 221 -28 140 -113 291 -232 409 -35 36 -64 66 -64 69 0 4 145
-27 210 -44 64 -18 200 -222 254 -382 26 -79 30 -109 30 -213 0 -93 -2 -105
-34 -168 -69 -140 -202 -214 -401 -221 -41 -1 -96 2 -124 6 -27 4 -63 10 -80
12 -79 12 -240 76 -358 144 -273 158 -486 403 -567 655 -27 82 -30 103 -30
193 0 122 43 221 125 290 69 57 178 98 274 103 l47 2 19 -58z m558 -216 l16
-58 -32 21 c-18 12 -42 26 -55 32 l-23 11 33 34 c17 18 35 30 38 26 4 -5 14
-34 23 -66z m-348 8 c175 -45 378 -184 495 -340 86 -114 125 -215 125 -325 0
-64 -4 -82 -28 -123 -30 -51 -85 -92 -139 -104 -84 -18 -272 1 -314 32 -18 12
-27 3 228 246 83 81 94 103 85 181 -14 119 -149 257 -286 293 -54 14 -122 13
-162 -3 -14 -6 -80 -64 -147 -129 -66 -65 -138 -135 -160 -157 l-40 -38 -20
38 c-154 306 23 515 363 429z m612 0 c12 -3 32 -8 45 -10 65 -12 118 -28 118
-35 0 -10 -23 -27 -35 -25 -5 1 -23 4 -40 8 -16 4 -43 9 -60 12 -16 2 -45 9
-63 14 -18 5 -36 10 -40 11 -10 3 -3 23 11 32 12 7 17 7 64 -7z m-1855 -378
c-112 -111 -214 -220 -227 -242 -80 -137 -57 -367 61 -598 182 -359 599 -659
989 -713 189 -26 351 4 485 91 99 63 325 256 408 348 14 15 28 27 32 27 3 0 5
-19 4 -42 -2 -24 -5 -97 -8 -163 -3 -66 -8 -178 -12 -250 -3 -71 -7 -144 -8
-162 0 -17 -4 -34 -8 -38 -3 -4 -33 -8 -65 -11 -32 -2 -80 -6 -108 -9 -27 -3
-79 -7 -115 -10 -36 -3 -85 -7 -110 -10 -25 -3 -72 -7 -105 -10 -66 -6 -159
-14 -219 -20 -21 -3 -73 -7 -115 -10 -42 -4 -92 -8 -111 -10 -118 -12 -204
-16 -209 -8 -3 5 -53 49 -111 98 -57 50 -116 100 -130 112 -62 54 -78 67 -124
106 -28 23 -60 52 -73 64 -13 11 -42 35 -63 53 -21 18 -50 42 -63 53 -12 12
-45 40 -72 62 -27 22 -60 51 -75 65 -14 14 -38 35 -52 46 -26 20 -130 108
-152 129 -6 6 -40 35 -76 65 -115 97 -120 103 -115 152 2 24 6 99 10 168 3 69
8 170 11 225 2 55 6 147 9 205 10 266 17 365 23 371 4 4 39 10 77 14 39 3 86
8 105 10 19 2 67 7 105 10 39 4 88 8 110 10 22 2 78 7 125 11 47 3 86 8 88 9
2 1 22 3 45 3 l42 1 -203 -202z m1439 117 c84 -46 145 -117 154 -179 8 -57 -4
-70 -68 -70 -109 2 -249 121 -262 226 -8 63 80 75 176 23z m-2046 -115 c-2 -8
-6 -85 -10 -170 -4 -85 -9 -188 -11 -229 -2 -41 -6 -131 -9 -200 -3 -69 -7
-163 -9 -208 l-4 -84 -144 -141 c-186 -183 -180 -179 -174 -136 3 19 8 108 11
199 11 281 13 331 20 475 4 77 8 160 8 185 2 44 5 48 157 200 112 113 157 151
161 140 4 -8 5 -22 4 -31z m1059 -161 c9 -21 16 -40 16 -43 0 -10 93 -162 137
-224 60 -84 190 -213 283 -283 165 -124 323 -198 511 -243 34 -8 126 -18 158
-18 27 1 31 -1 17 -9 -18 -10 -185 -13 -226 -4 -23 5 -88 19 -100 21 -3 0 -36
11 -75 24 -272 92 -546 336 -679 606 -47 94 -56 116 -60 135 -2 8 -6 23 -10
32 -4 9 -9 25 -11 35 -2 10 -4 18 -5 18 -2 0 -6 30 -14 100 l-6 60 24 -85 c14
-47 32 -102 40 -122z m803 58 c45 -47 149 -116 174 -116 43 0 27 -27 -67 -116
l-99 -93 -45 26 c-70 41 -119 80 -193 155 l-68 70 107 103 107 103 23 -46 c13
-26 40 -65 61 -86z m-917 -127 c156 -462 655 -856 1093 -861 63 -1 94 -12 45
-16 -298 -24 -598 93 -836 327 -106 104 -146 153 -210 259 -79 130 -126 261
-138 382 -10 105 -7 116 11 34 8 -34 23 -90 35 -125z m-265 141 c-8 -13 -14
-243 -8 -292 3 -21 10 -38 15 -38 6 0 7 8 4 17 -4 10 -3 14 1 9 9 -9 43 -109
39 -114 -2 -2 -11 5 -21 14 -16 16 -16 15 -11 -20 3 -21 11 -47 17 -58 14 -27
7 -32 -17 -10 -37 34 -95 75 -99 70 -5 -4 17 -89 33 -133 20 -51 118 -236 136
-257 12 -13 34 -41 51 -63 38 -51 172 -182 208 -203 15 -9 27 -20 27 -24 0 -4
5 -8 11 -8 6 0 25 -11 42 -24 35 -26 169 -99 202 -109 11 -3 47 -15 80 -27 33
-11 73 -23 90 -26 16 -2 39 -7 49 -11 26 -8 75 -13 169 -17 43 -2 80 -6 83 -9
7 -6 -85 -26 -100 -22 -6 2 -40 6 -76 9 -36 3 -76 7 -90 10 -14 3 -41 7 -61
10 -20 3 -48 10 -63 15 -14 6 -26 8 -26 5 0 -2 -9 0 -21 6 -11 6 -28 13 -37
15 -27 5 -103 37 -157 65 -98 52 -131 73 -193 122 -54 42 -88 75 -182 178 -48
52 -126 183 -161 272 -51 127 -71 226 -70 338 2 100 20 215 22 134 0 -39 8
-124 13 -149 3 -11 5 -29 5 -39 2 -35 12 -9 16 40 2 27 7 81 10 119 4 39 8 91
10 116 2 30 12 55 27 72 22 26 46 38 33 17z m119 -66 c21 -209 140 -447 321
-643 38 -42 76 -80 82 -84 7 -4 27 -21 45 -38 66 -60 271 -188 333 -208 6 -2
21 -8 35 -13 82 -32 153 -49 275 -64 79 -10 67 -15 -27 -13 -207 4 -442 81
-547 179 -21 19 -57 52 -80 72 -24 21 -83 75 -133 120 -50 46 -99 90 -108 98
-22 19 -100 139 -133 205 -30 60 -74 194 -82 250 -5 37 -6 93 -3 173 3 54 15
36 22 -34z m443 -97 c75 -113 205 -249 318 -332 22 -16 42 -32 45 -35 10 -12
156 -97 220 -127 117 -56 312 -113 385 -113 19 0 36 -3 38 -7 6 -9 -72 -8
-153 1 -292 35 -615 239 -813 514 -55 77 -137 229 -137 254 0 7 12 -9 26 -37
14 -27 46 -80 71 -118z m-794 -244 c2 -24 1 -41 -2 -38 -4 2 -8 23 -10 47 -3
53 5 47 12 -9z m348 -163 c4 0 38 -43 75 -96 78 -109 200 -238 289 -304 33
-25 62 -47 65 -51 8 -8 119 -74 168 -98 96 -48 229 -90 299 -94 7 0 10 -4 7
-8 -2 -5 -10 -6 -17 -4 -7 2 -39 7 -72 10 -71 8 -80 10 -120 20 -308 76 -594
311 -728 598 -34 73 -34 84 0 52 15 -14 31 -25 34 -25z m-636 -451 c77 -67
165 -143 195 -169 30 -26 78 -67 105 -90 61 -51 75 -63 285 -244 14 -11 90
-77 170 -145 80 -68 151 -130 159 -137 12 -11 -4 -31 -100 -124 -63 -61 -143
-140 -179 -176 l-65 -64 -30 28 c-17 15 -93 81 -170 147 -125 108 -473 407
-550 474 -43 37 -165 142 -199 171 -16 14 -40 34 -52 46 -13 11 -35 29 -49 40
l-25 19 172 172 c95 95 178 173 183 173 6 0 73 -55 150 -121z m-620 -38 c-2
-5 -6 -54 -7 -109 -2 -90 0 -103 17 -119 26 -24 158 -137 220 -190 51 -42 59
-49 155 -132 30 -27 91 -79 135 -117 44 -38 82 -71 85 -74 3 -3 32 -27 65 -55
33 -27 62 -52 65 -55 3 -3 52 -46 110 -95 58 -49 107 -92 110 -95 3 -3 37 -32
75 -65 39 -33 72 -62 75 -65 3 -3 20 -18 39 -33 33 -28 37 -28 110 -22 171 15
162 16 151 -5 -30 -56 -182 -152 -262 -166 -81 -14 -255 -13 -328 2 -106 21
-149 34 -207 60 -17 8 -33 14 -36 14 -16 0 -152 69 -222 112 -340 211 -562
533 -570 828 -5 166 52 286 180 377 28 20 52 22 40 4z m-321 -427 c39 -427
441 -859 957 -1028 132 -43 215 -57 342 -59 37 0 67 -3 67 -7 0 -14 -95 -102
-136 -126 -92 -54 -184 -76 -309 -74 -78 1 -105 3 -155 14 -14 3 -38 8 -55 12
-102 20 -305 112 -423 191 -177 119 -340 299 -420 463 -23 49 -60 140 -60 153
0 4 -3 20 -6 35 -4 15 -9 38 -11 52 -7 34 -7 159 0 192 8 39 52 117 89 157 31
33 107 94 112 89 1 -2 5 -30 8 -64z m2866 -439 c-152 -151 -156 -154 -205
-160 -52 -5 -122 -11 -235 -20 -36 -3 -83 -7 -105 -10 -22 -2 -71 -7 -110 -10
-38 -3 -88 -8 -110 -10 -22 -2 -71 -7 -110 -10 -38 -3 -88 -8 -110 -10 -22 -2
-81 -7 -132 -10 l-92 -7 154 152 c114 113 161 153 182 156 28 3 107 11 198 19
28 2 73 6 100 9 28 3 79 8 115 11 36 3 85 8 110 10 25 2 77 7 115 10 39 3 84
7 100 9 17 3 68 7 115 11 47 4 86 8 87 8 1 1 21 3 45 4 l43 3 -155 -155z
m-3177 65 c4 -25 9 -56 12 -70 3 -14 8 -36 11 -50 3 -14 17 -54 31 -90 24 -59
34 -79 75 -151 54 -95 189 -251 296 -342 57 -48 204 -143 287 -185 82 -42 262
-106 325 -116 87 -14 138 -20 178 -20 23 0 42 -1 42 -3 0 -18 -38 -68 -77
-103 -92 -82 -207 -119 -353 -114 -52 1 -106 5 -120 8 -215 47 -393 134 -556
272 -156 132 -277 300 -324 449 -7 22 -15 47 -18 55 -12 35 -23 121 -24 180 0
93 43 193 111 259 33 31 93 73 97 68 1 -1 4 -22 7 -47z m-224 -659 c134 -269
397 -500 704 -618 l78 -30 -68 -65 c-204 -197 -219 -206 -363 -213 -233 -11
-488 134 -621 353 -50 84 -72 158 -71 244 1 71 15 108 58 155 99 107 237 253
240 253 2 0 21 -35 43 -79z m-308 -701 c37 -48 70 -81 129 -131 62 -52 164
-119 182 -119 7 0 -11 -21 -38 -47 -28 -27 -81 -76 -118 -110 -107 -101 -172
-123 -271 -95 -143 41 -231 186 -169 280 19 29 245 252 255 252 4 0 17 -14 30
-30z m-504 -364 c0 -8 12 -40 28 -72 38 -80 134 -172 221 -215 38 -19 72 -34
75 -34 4 0 11 -3 15 -7 26 -27 -146 20 -177 48 -8 8 -19 14 -23 14 -19 0 -99
89 -121 134 -26 54 -40 119 -30 136 8 14 12 13 12 -4z"/>
</g>
</svg>
